# MagicaVoxel @ Ephtracy

# group
g wall

# material
mtllib wall.mtl
usemtl palette

# normals
vn -1 0 0
vn 1 0 0
vn 0 0 1
vn 0 0 -1
vn 0 -1 0
vn 0 1 0

# texcoords
vt 0.751953 0.5
vt 0.755859 0.5

# verts
v -4.5 0 4.5
v -4.5 0 -4.5
v -4.5 1 4.5
v -4.5 1 2.5
v -4.5 1 1.5
v -4.5 1 -2.5
v -4.5 1 -3.5
v -4.5 1 -4.5
v -4.5 4 4.5
v -4.5 4 2.5
v -4.5 4 1.5
v -4.5 4 -2.5
v -4.5 4 -3.5
v -4.5 4 -4.5
v -4.5 5 4.5
v -4.5 5 0.5
v -4.5 5 -0.5
v -4.5 5 -4.5
v -4.5 9 4.5
v -4.5 9 0.5
v -4.5 9 -0.5
v -4.5 9 -4.5
v -4.5 10 4.5
v -4.5 10 3.5
v -4.5 10 2.5
v -4.5 10 -1.5
v -4.5 10 -2.5
v -4.5 10 -4.5
v -4.5 13 4.5
v -4.5 13 3.5
v -4.5 13 2.5
v -4.5 13 -1.5
v -4.5 13 -2.5
v -4.5 13 -4.5
v -4.5 14 4.5
v -4.5 14 0.5
v -4.5 14 -0.5
v -4.5 14 -4.5
v -4.5 17 4.5
v -4.5 17 0.5
v -4.5 17 -0.5
v -4.5 17 -4.5
v -4.5 18 4.5
v -4.5 18 -4.5
v 4.5 0 4.5
v 4.5 0 -4.5
v 4.5 1 4.5
v 4.5 1 3.5
v 4.5 1 2.5
v 4.5 1 -1.5
v 4.5 1 -2.5
v 4.5 1 -4.5
v 4.5 4 4.5
v 4.5 4 3.5
v 4.5 4 2.5
v 4.5 4 -1.5
v 4.5 4 -2.5
v 4.5 4 -4.5
v 4.5 5 4.5
v 4.5 5 0.5
v 4.5 5 -0.5
v 4.5 5 -4.5
v 4.5 9 4.5
v 4.5 9 0.5
v 4.5 9 -0.5
v 4.5 9 -4.5
v 4.5 10 4.5
v 4.5 10 2.5
v 4.5 10 1.5
v 4.5 10 -2.5
v 4.5 10 -3.5
v 4.5 10 -4.5
v 4.5 13 4.5
v 4.5 13 2.5
v 4.5 13 1.5
v 4.5 13 -2.5
v 4.5 13 -3.5
v 4.5 13 -4.5
v 4.5 14 4.5
v 4.5 14 0.5
v 4.5 14 -0.5
v 4.5 14 -4.5
v 4.5 17 4.5
v 4.5 17 0.5
v 4.5 17 -0.5
v 4.5 17 -4.5
v 4.5 18 4.5
v 4.5 18 -4.5
v -4.5 0 4.5
v -4.5 1 4.5
v -4.5 4 4.5
v -4.5 5 4.5
v -4.5 9 4.5
v -4.5 10 4.5
v -4.5 13 4.5
v -4.5 14 4.5
v -4.5 17 4.5
v -4.5 18 4.5
v -3.5 5 4.5
v -3.5 9 4.5
v -2.5 5 4.5
v -2.5 9 4.5
v -2.5 14 4.5
v -2.5 17 4.5
v -1.5 14 4.5
v -1.5 17 4.5
v -0.5 1 4.5
v -0.5 4 4.5
v -0.5 10 4.5
v -0.5 13 4.5
v 0.5 1 4.5
v 0.5 4 4.5
v 0.5 10 4.5
v 0.5 13 4.5
v 1.5 5 4.5
v 1.5 9 4.5
v 2.5 5 4.5
v 2.5 9 4.5
v 2.5 14 4.5
v 2.5 17 4.5
v 3.5 14 4.5
v 3.5 17 4.5
v 4.5 0 4.5
v 4.5 1 4.5
v 4.5 4 4.5
v 4.5 5 4.5
v 4.5 9 4.5
v 4.5 10 4.5
v 4.5 13 4.5
v 4.5 14 4.5
v 4.5 17 4.5
v 4.5 18 4.5
v -4.5 0 -4.5
v -4.5 1 -4.5
v -4.5 4 -4.5
v -4.5 5 -4.5
v -4.5 9 -4.5
v -4.5 10 -4.5
v -4.5 13 -4.5
v -4.5 14 -4.5
v -4.5 17 -4.5
v -4.5 18 -4.5
v -3.5 14 -4.5
v -3.5 17 -4.5
v -2.5 5 -4.5
v -2.5 9 -4.5
v -2.5 14 -4.5
v -2.5 17 -4.5
v -1.5 5 -4.5
v -1.5 9 -4.5
v -0.5 1 -4.5
v -0.5 4 -4.5
v -0.5 10 -4.5
v -0.5 13 -4.5
v 0.5 1 -4.5
v 0.5 4 -4.5
v 0.5 10 -4.5
v 0.5 13 -4.5
v 1.5 14 -4.5
v 1.5 17 -4.5
v 2.5 5 -4.5
v 2.5 9 -4.5
v 2.5 14 -4.5
v 2.5 17 -4.5
v 3.5 5 -4.5
v 3.5 9 -4.5
v 4.5 0 -4.5
v 4.5 1 -4.5
v 4.5 4 -4.5
v 4.5 5 -4.5
v 4.5 9 -4.5
v 4.5 10 -4.5
v 4.5 13 -4.5
v 4.5 14 -4.5
v 4.5 17 -4.5
v 4.5 18 -4.5
v -4.5 0 4.5
v 4.5 0 4.5
v -4.5 0 -4.5
v 4.5 0 -4.5
v -4.5 18 4.5
v 4.5 18 4.5
v -4.5 18 -4.5
v 4.5 18 -4.5

# faces
f 3/2/1 2/2/1 1/2/1
f 4/2/1 2/2/1 3/2/1
f 5/2/1 2/2/1 4/2/1
f 6/2/1 2/2/1 5/2/1
f 7/2/1 2/2/1 6/2/1
f 8/2/1 2/2/1 7/2/1
f 9/1/1 4/1/1 3/1/1
f 10/2/1 5/2/1 4/2/1
f 10/1/1 4/1/1 9/1/1
f 11/1/1 6/1/1 5/1/1
f 11/2/1 5/2/1 10/2/1
f 12/2/1 7/2/1 6/2/1
f 12/1/1 6/1/1 11/1/1
f 13/1/1 8/1/1 7/1/1
f 13/2/1 7/2/1 12/2/1
f 14/1/1 8/1/1 13/1/1
f 15/2/1 10/2/1 9/2/1
f 15/2/1 11/2/1 10/2/1
f 15/2/1 14/2/1 13/2/1
f 15/2/1 13/2/1 12/2/1
f 15/2/1 12/2/1 11/2/1
f 16/2/1 14/2/1 15/2/1
f 17/2/1 14/2/1 16/2/1
f 18/2/1 14/2/1 17/2/1
f 19/1/1 16/1/1 15/1/1
f 20/2/1 17/2/1 16/2/1
f 20/1/1 16/1/1 19/1/1
f 21/1/1 18/1/1 17/1/1
f 21/2/1 17/2/1 20/2/1
f 22/1/1 18/1/1 21/1/1
f 23/2/1 20/2/1 19/2/1
f 23/2/1 21/2/1 20/2/1
f 23/2/1 22/2/1 21/2/1
f 24/2/1 22/2/1 23/2/1
f 25/2/1 22/2/1 24/2/1
f 26/2/1 22/2/1 25/2/1
f 27/2/1 22/2/1 26/2/1
f 28/2/1 22/2/1 27/2/1
f 29/1/1 24/1/1 23/1/1
f 30/2/1 25/2/1 24/2/1
f 30/1/1 24/1/1 29/1/1
f 31/1/1 26/1/1 25/1/1
f 31/2/1 25/2/1 30/2/1
f 32/2/1 27/2/1 26/2/1
f 32/1/1 26/1/1 31/1/1
f 33/1/1 28/1/1 27/1/1
f 33/2/1 27/2/1 32/2/1
f 34/1/1 28/1/1 33/1/1
f 35/2/1 30/2/1 29/2/1
f 35/2/1 31/2/1 30/2/1
f 35/2/1 34/2/1 33/2/1
f 35/2/1 33/2/1 32/2/1
f 35/2/1 32/2/1 31/2/1
f 36/2/1 34/2/1 35/2/1
f 37/2/1 34/2/1 36/2/1
f 38/2/1 34/2/1 37/2/1
f 39/1/1 36/1/1 35/1/1
f 40/2/1 37/2/1 36/2/1
f 40/1/1 36/1/1 39/1/1
f 41/1/1 38/1/1 37/1/1
f 41/2/1 37/2/1 40/2/1
f 42/1/1 38/1/1 41/1/1
f 43/2/1 40/2/1 39/2/1
f 43/2/1 41/2/1 40/2/1
f 43/2/1 42/2/1 41/2/1
f 44/2/1 42/2/1 43/2/1
f 45/2/2 46/2/2 47/2/2
f 47/2/2 46/2/2 48/2/2
f 48/2/2 46/2/2 49/2/2
f 49/2/2 46/2/2 50/2/2
f 50/2/2 46/2/2 51/2/2
f 51/2/2 46/2/2 52/2/2
f 47/1/2 48/1/2 53/1/2
f 48/2/2 49/2/2 54/2/2
f 53/1/2 48/1/2 54/1/2
f 49/1/2 50/1/2 55/1/2
f 54/2/2 49/2/2 55/2/2
f 50/2/2 51/2/2 56/2/2
f 55/1/2 50/1/2 56/1/2
f 51/1/2 52/1/2 57/1/2
f 56/2/2 51/2/2 57/2/2
f 57/1/2 52/1/2 58/1/2
f 53/2/2 54/2/2 59/2/2
f 54/2/2 55/2/2 59/2/2
f 57/2/2 58/2/2 59/2/2
f 56/2/2 57/2/2 59/2/2
f 55/2/2 56/2/2 59/2/2
f 59/2/2 58/2/2 60/2/2
f 60/2/2 58/2/2 61/2/2
f 61/2/2 58/2/2 62/2/2
f 59/1/2 60/1/2 63/1/2
f 60/2/2 61/2/2 64/2/2
f 63/1/2 60/1/2 64/1/2
f 61/1/2 62/1/2 65/1/2
f 64/2/2 61/2/2 65/2/2
f 65/1/2 62/1/2 66/1/2
f 63/2/2 64/2/2 67/2/2
f 64/2/2 65/2/2 67/2/2
f 65/2/2 66/2/2 67/2/2
f 67/2/2 66/2/2 68/2/2
f 68/2/2 66/2/2 69/2/2
f 69/2/2 66/2/2 70/2/2
f 70/2/2 66/2/2 71/2/2
f 71/2/2 66/2/2 72/2/2
f 67/1/2 68/1/2 73/1/2
f 68/2/2 69/2/2 74/2/2
f 73/1/2 68/1/2 74/1/2
f 69/1/2 70/1/2 75/1/2
f 74/2/2 69/2/2 75/2/2
f 70/2/2 71/2/2 76/2/2
f 75/1/2 70/1/2 76/1/2
f 71/1/2 72/1/2 77/1/2
f 76/2/2 71/2/2 77/2/2
f 77/1/2 72/1/2 78/1/2
f 73/2/2 74/2/2 79/2/2
f 74/2/2 75/2/2 79/2/2
f 77/2/2 78/2/2 79/2/2
f 76/2/2 77/2/2 79/2/2
f 75/2/2 76/2/2 79/2/2
f 79/2/2 78/2/2 80/2/2
f 80/2/2 78/2/2 81/2/2
f 81/2/2 78/2/2 82/2/2
f 79/1/2 80/1/2 83/1/2
f 80/2/2 81/2/2 84/2/2
f 83/1/2 80/1/2 84/1/2
f 81/1/2 82/1/2 85/1/2
f 84/2/2 81/2/2 85/2/2
f 85/1/2 82/1/2 86/1/2
f 83/2/2 84/2/2 87/2/2
f 84/2/2 85/2/2 87/2/2
f 85/2/2 86/2/2 87/2/2
f 87/2/2 86/2/2 88/2/2
f 99/2/3 92/2/3 91/2/3
f 99/1/3 93/1/3 92/1/3
f 100/2/3 94/2/3 93/2/3
f 100/1/3 93/1/3 99/1/3
f 101/2/3 99/2/3 91/2/3
f 101/2/3 100/2/3 99/2/3
f 102/2/3 94/2/3 100/2/3
f 102/2/3 100/2/3 101/2/3
f 103/1/3 97/1/3 96/1/3
f 103/2/3 96/2/3 95/2/3
f 104/2/3 98/2/3 97/2/3
f 104/1/3 97/1/3 103/1/3
f 105/2/3 103/2/3 95/2/3
f 105/2/3 104/2/3 103/2/3
f 106/2/3 98/2/3 104/2/3
f 106/2/3 104/2/3 105/2/3
f 107/2/3 90/2/3 89/2/3
f 107/1/3 91/1/3 90/1/3
f 108/2/3 101/2/3 91/2/3
f 108/1/3 91/1/3 107/1/3
f 109/2/3 94/2/3 102/2/3
f 109/1/3 95/1/3 94/1/3
f 110/2/3 105/2/3 95/2/3
f 110/1/3 95/1/3 109/1/3
f 111/2/3 107/2/3 89/2/3
f 111/2/3 108/2/3 107/2/3
f 112/2/3 101/2/3 108/2/3
f 112/2/3 108/2/3 111/2/3
f 113/2/3 109/2/3 102/2/3
f 113/2/3 110/2/3 109/2/3
f 114/2/3 105/2/3 110/2/3
f 114/2/3 110/2/3 113/2/3
f 115/2/3 101/2/3 112/2/3
f 115/1/3 102/1/3 101/1/3
f 116/2/3 113/2/3 102/2/3
f 116/1/3 102/1/3 115/1/3
f 117/2/3 115/2/3 112/2/3
f 117/2/3 116/2/3 115/2/3
f 118/2/3 113/2/3 116/2/3
f 118/2/3 116/2/3 117/2/3
f 119/1/3 106/1/3 105/1/3
f 119/2/3 105/2/3 114/2/3
f 120/2/3 98/2/3 106/2/3
f 120/1/3 106/1/3 119/1/3
f 121/2/3 119/2/3 114/2/3
f 121/2/3 120/2/3 119/2/3
f 122/2/3 98/2/3 120/2/3
f 122/2/3 120/2/3 121/2/3
f 123/2/3 111/2/3 89/2/3
f 124/1/3 112/1/3 111/1/3
f 124/2/3 111/2/3 123/2/3
f 125/2/3 117/2/3 112/2/3
f 125/1/3 112/1/3 124/1/3
f 126/1/3 118/1/3 117/1/3
f 126/2/3 117/2/3 125/2/3
f 127/2/3 113/2/3 118/2/3
f 127/1/3 118/1/3 126/1/3
f 128/1/3 114/1/3 113/1/3
f 128/2/3 113/2/3 127/2/3
f 129/2/3 121/2/3 114/2/3
f 129/1/3 114/1/3 128/1/3
f 130/1/3 122/1/3 121/1/3
f 130/2/3 121/2/3 129/2/3
f 131/2/3 98/2/3 122/2/3
f 131/1/3 122/1/3 130/1/3
f 132/2/3 98/2/3 131/2/3
f 139/2/4 140/2/4 143/2/4
f 140/1/4 141/1/4 143/1/4
f 141/2/4 142/2/4 144/2/4
f 143/1/4 141/1/4 144/1/4
f 135/2/4 136/2/4 145/2/4
f 136/1/4 137/1/4 145/1/4
f 137/2/4 138/2/4 146/2/4
f 145/1/4 137/1/4 146/1/4
f 143/2/4 144/2/4 147/2/4
f 139/2/4 143/2/4 147/2/4
f 144/2/4 142/2/4 148/2/4
f 147/2/4 144/2/4 148/2/4
f 135/2/4 145/2/4 149/2/4
f 145/2/4 146/2/4 149/2/4
f 146/2/4 138/2/4 150/2/4
f 149/2/4 146/2/4 150/2/4
f 133/2/4 134/2/4 151/2/4
f 134/1/4 135/1/4 151/1/4
f 135/2/4 149/2/4 152/2/4
f 151/1/4 135/1/4 152/1/4
f 150/2/4 138/2/4 153/2/4
f 138/1/4 139/1/4 153/1/4
f 139/2/4 147/2/4 154/2/4
f 153/1/4 139/1/4 154/1/4
f 133/2/4 151/2/4 155/2/4
f 151/2/4 152/2/4 155/2/4
f 152/2/4 149/2/4 156/2/4
f 155/2/4 152/2/4 156/2/4
f 150/2/4 153/2/4 157/2/4
f 153/2/4 154/2/4 157/2/4
f 154/2/4 147/2/4 158/2/4
f 157/2/4 154/2/4 158/2/4
f 147/1/4 148/1/4 159/1/4
f 158/2/4 147/2/4 159/2/4
f 148/2/4 142/2/4 160/2/4
f 159/1/4 148/1/4 160/1/4
f 149/1/4 150/1/4 161/1/4
f 156/2/4 149/2/4 161/2/4
f 150/2/4 157/2/4 162/2/4
f 161/1/4 150/1/4 162/1/4
f 159/2/4 160/2/4 163/2/4
f 158/2/4 159/2/4 163/2/4
f 160/2/4 142/2/4 164/2/4
f 163/2/4 160/2/4 164/2/4
f 156/2/4 161/2/4 165/2/4
f 161/2/4 162/2/4 165/2/4
f 162/2/4 157/2/4 166/2/4
f 165/2/4 162/2/4 166/2/4
f 133/2/4 155/2/4 167/2/4
f 155/1/4 156/1/4 168/1/4
f 167/2/4 155/2/4 168/2/4
f 156/2/4 165/2/4 169/2/4
f 168/1/4 156/1/4 169/1/4
f 165/1/4 166/1/4 170/1/4
f 169/2/4 165/2/4 170/2/4
f 166/2/4 157/2/4 171/2/4
f 170/1/4 166/1/4 171/1/4
f 157/1/4 158/1/4 172/1/4
f 171/2/4 157/2/4 172/2/4
f 158/2/4 163/2/4 173/2/4
f 172/1/4 158/1/4 173/1/4
f 163/1/4 164/1/4 174/1/4
f 173/2/4 163/2/4 174/2/4
f 164/2/4 142/2/4 175/2/4
f 174/1/4 164/1/4 175/1/4
f 175/2/4 142/2/4 176/2/4
f 179/2/5 178/2/5 177/2/5
f 180/2/5 178/2/5 179/2/5
f 181/2/6 182/2/6 183/2/6
f 183/2/6 182/2/6 184/2/6
